<svg xmlns="http://www.w3.org/2000/svg" width="532" height="532" viewBox="0 0 532 532">
    <defs>
        <linearGradient id="a" x1="50%" x2="50%" y1="0%" y2="100%">
            <stop offset="0%" stop-color="#F9FADE"/>
            <stop offset="100%" stop-color="#FFD072"/>
        </linearGradient>
    </defs>
    <g fill="none" fill-rule="nonzero">
        <path fill="#FFF" d="M95.439 470.128A11.944 11.944 0 0 1 89 472c-6.627 0-12-5.373-12-12 0-1.98.48-3.847 1.328-5.492C29.946 406.338 0 339.666 0 266 0 119.092 119.092 0 266 0c146.908 0 266 119.092 266 266 0 146.908-119.092 266-266 266-64.908 0-124.386-23.248-170.561-61.872zm4.103-4.39C144.64 503.362 202.676 526 266 526c143.594 0 260-116.406 260-260S409.594 6 266 6 6 122.406 6 266c0 71.887 29.174 136.96 76.329 184.024A11.944 11.944 0 0 1 89 448c6.627 0 12 5.373 12 12 0 2.078-.528 4.033-1.458 5.738z" opacity=".1"/>
        <path fill="url(#a)" d="M266 530C120.197 530 2 411.803 2 266S120.197 2 266 2s264 118.197 264 264-118.197 264-264 264zm0-2c144.699 0 262-117.301 262-262S410.699 4 266 4 4 121.301 4 266s117.301 262 262 262z" opacity=".4"/>
    </g>
</svg>
