<svg xmlns="http://www.w3.org/2000/svg" width="60" height="60" viewBox="0 0 60 60">
    <g fill="#FFF" fill-rule="nonzero">
        <path d="M51.29 21.321a8.71 8.71 0 0 0-7.402 4.129c-2.014-7.368-8.769-12.807-16.791-12.807-9.605 0-17.42 7.786-17.42 17.357 0 9.57 7.815 17.357 17.42 17.357 8.022 0 14.777-5.44 16.791-12.807a8.71 8.71 0 0 0 7.402 4.129c4.802 0 8.71-3.893 8.71-8.679 0-4.785-3.908-8.679-8.71-8.679zm-27.515-6.383a19.807 19.807 0 0 0-4.42 6.075c-1.597-.583-2.723-1.243-3.392-1.708a15.484 15.484 0 0 1 7.812-4.367zm-9.07 5.851c.77.557 2.07 1.344 3.92 2.024-.638 1.802-1.065 3.873-1.161 6.223h-5.802a15.289 15.289 0 0 1 3.043-8.247zm0 18.422a15.281 15.281 0 0 1-3.043-8.247h5.802c.097 2.35.523 4.42 1.161 6.223-1.85.68-3.15 1.467-3.92 2.024zm1.257 1.484c.67-.466 1.796-1.125 3.392-1.708a19.783 19.783 0 0 0 4.42 6.075 15.484 15.484 0 0 1-7.812-4.367zm10.167 3.837a18.16 18.16 0 0 1-4.889-6.121c1.379-.35 3.005-.603 4.889-.67v6.79zm0-8.72c-2.187.071-4.063.373-5.64.79-.591-1.631-.992-3.51-1.09-5.638h6.73v4.848zm0-6.776h-6.73c.095-2.134.488-4.014 1.07-5.644 1.583.42 3.465.724 5.66.796v4.848zm0-6.776c-1.894-.068-3.527-.324-4.912-.676a17.829 17.829 0 0 1 4.912-6.137v6.813zm13.359-1.47a15.281 15.281 0 0 1 3.042 8.246h-5.8c-.097-2.35-.524-4.42-1.162-6.223 1.85-.68 3.15-1.466 3.92-2.024zm-1.256-1.485c-.67.466-1.797 1.125-3.392 1.708a19.814 19.814 0 0 0-4.421-6.075 15.492 15.492 0 0 1 7.813 4.367zm-10.167-3.837a18.16 18.16 0 0 1 4.889 6.122c-1.38.349-3.005.602-4.89.67v-6.792zm0 15.496h2.903v-1.928h-2.903v-4.848c2.187-.071 4.062-.373 5.64-.79.59 1.632.991 3.51 1.09 5.639h-1.892v1.928h1.892c-.096 2.134-.489 4.014-1.071 5.643-1.582-.42-3.465-.724-5.66-.796v-4.848zm0 13.589V37.74c1.893.068 3.527.324 4.912.676a17.829 17.829 0 0 1-4.912 6.137zm2.353.51a19.807 19.807 0 0 0 4.42-6.076c1.597.583 2.724 1.243 3.393 1.708a15.477 15.477 0 0 1-7.813 4.367zm9.07-5.852c-.77-.557-2.07-1.344-3.92-2.024.638-1.802 1.066-3.873 1.162-6.223h5.801a15.281 15.281 0 0 1-3.042 8.247zM51.29 36.75c-3.735 0-6.774-3.029-6.774-6.75 0-3.722 3.039-6.75 6.774-6.75 3.736 0 6.775 3.028 6.775 6.75 0 3.721-3.04 6.75-6.775 6.75z"/>
        <path d="M52.258 26.192v-1.978h-1.935v1.978a2.416 2.416 0 0 0-1.936 2.362 2.418 2.418 0 0 0 2.42 2.41h.967c.267 0 .484.217.484.482a.484.484 0 0 1-.484.483h-.968a.484.484 0 0 1-.483-.483v-.482h-1.936v.482c0 1.165.832 2.138 1.936 2.362v1.978h1.935v-1.978a2.416 2.416 0 0 0 1.936-2.362 2.418 2.418 0 0 0-2.42-2.41h-.968a.483.483 0 1 1 0-.965h.968c.267 0 .484.216.484.483v.482h1.936v-.482a2.416 2.416 0 0 0-1.936-2.362z"/>
        <path d="M27.097 55.071C13.223 55.071 1.935 43.825 1.935 30c0-13.824 11.288-25.071 25.162-25.071A25.19 25.19 0 0 1 48.6 17.005l-5.784-1.44-.47 1.87 8.681 2.163 2.17-8.65-1.877-.467-1.29 5.147A27.135 27.135 0 0 0 27.096 3C12.156 3 0 15.112 0 30s12.156 27 27.097 27a27.13 27.13 0 0 0 23.75-14l-1.695-.93a25.194 25.194 0 0 1-22.055 13.001z"/>
    </g>
</svg>
