<svg xmlns="http://www.w3.org/2000/svg" width="60" height="60" viewBox="0 0 60 60">
    <g fill="none" fill-rule="nonzero">
        <path fill="#FFF" d="M44.71 6.082l-8.657 8.867.768.787-7.83 3.093-6.234-2.571 1.191-1.22-8.659-8.867L0 21.827l8.66 8.867 1.136-1.164 4.22 6.847a4.04 4.04 0 0 0-.396 1.75 3.99 3.99 0 0 0 1.136 2.807 3.798 3.798 0 0 0 2.583 1.157 3.989 3.989 0 0 0 1.13 2.643 3.797 3.797 0 0 0 2.58 1.159c.04 1 .438 1.933 1.132 2.644a3.814 3.814 0 0 0 2.581 1.158 3.99 3.99 0 0 0 1.13 2.644 3.805 3.805 0 0 0 3.047 1.148 3.805 3.805 0 0 0 4.5-.731 3.988 3.988 0 0 0 1.128-2.642 3.804 3.804 0 0 0 2.583-1.16 3.974 3.974 0 0 0 1.132-2.641 3.805 3.805 0 0 0 2.58-1.157 3.99 3.99 0 0 0 1.13-2.642 3.795 3.795 0 0 0 2.58-1.159c1.236-1.265 1.459-3.18.67-4.683l5.202-6.987.899.92L60 21.738 44.71 6.082zM8.66 27.075l-5.125-5.248L15.289 9.791l5.125 5.247L8.66 27.075zm9.808 12.05a1.35 1.35 0 0 1-1.945 0 1.423 1.423 0 0 1-.403-.998c0-.375.144-.73.403-.994l1.294-1.328a1.35 1.35 0 0 1 1.946 0c.536.55.536 1.444 0 1.992l-1.295 1.327zm3.712 3.802a1.356 1.356 0 0 1-1.945 0 1.436 1.436 0 0 1 0-1.993l1.294-1.326a1.352 1.352 0 0 1 1.946 0c.26.266.403.619.403.996 0 .376-.143.729-.403.995l-1.295 1.328zm3.714 3.8a1.352 1.352 0 0 1-1.947 0 1.421 1.421 0 0 1-.403-.995c0-.377.144-.732.404-.998l1.294-1.324a1.352 1.352 0 0 1 1.945 0 1.434 1.434 0 0 1 .001 1.992l-1.294 1.325zm5.006 2.477l-1.294 1.324a1.35 1.35 0 0 1-1.945 0 1.415 1.415 0 0 1-.404-.996c0-.377.144-.73.404-.995l1.294-1.326a1.35 1.35 0 0 1 1.945 0c.26.266.404.62.404.996 0 .377-.144.73-.404.997zm11.903-9.656a1.35 1.35 0 0 1-1.915.026l-3.412-3.491c-.489-.5-1.28-.5-1.767 0a1.3 1.3 0 0 0 0 1.807l3.413 3.495a1.441 1.441 0 0 1-.029 1.962 1.347 1.347 0 0 1-1.915.026l-3.411-3.491c-.49-.501-1.28-.501-1.767 0a1.299 1.299 0 0 0 0 1.807l3.411 3.495a1.44 1.44 0 0 1-.027 1.961 1.348 1.348 0 0 1-1.67.218 3.95 3.95 0 0 0-1.046-1.961 3.8 3.8 0 0 0-2.584-1.16 4.001 4.001 0 0 0-1.13-2.643 3.812 3.812 0 0 0-2.58-1.159 3.994 3.994 0 0 0-1.13-2.643 3.817 3.817 0 0 0-2.584-1.157 3.997 3.997 0 0 0-1.13-2.644 3.807 3.807 0 0 0-2.74-1.16 3.809 3.809 0 0 0-2.74 1.16l-.334.343-4.108-6.665 1.323-1.354 7.907-8.096 5.497 2.27-3.649 3.736c-1.516 1.553-1.516 4.078 0 5.63a3.816 3.816 0 0 0 2.748 1.166c1.03 0 1.999-.408 2.731-1.148l1.902-1.809 1.922-.504 1.853 1.154.76.472 7.94 8.098.26.266c.54.55.54 1.442 0 1.993zm.754-4.836l-7.405-7.55-3.764-2.344-3.556.933-2.383 2.266-.033.033a1.364 1.364 0 0 1-1.963 0 1.449 1.449 0 0 1 0-2.01l4.253-4.356 10.046-3.969L48.66 27.86l-5.103 6.853zm7.786-7.726L39.587 14.95l5.124-5.247 11.755 12.036-5.123 5.248z"/>
        <path fill="#F8E71C" d="M10.014 22.144a1.23 1.23 0 0 0-1.768 0c-.488.5-.488 1.31 0 1.81s1.28.5 1.768 0 .488-1.31 0-1.81z"/>
    </g>
</svg>
