<svg xmlns="http://www.w3.org/2000/svg" width="60" height="60" viewBox="0 0 60 60">
    <g fill="#FFF" fill-rule="nonzero">
        <path d="M59.902 23.386c0 .514-.419.93-.936.93a.935.935 0 0 1-.936-.93V9.89H1.872v17.376h5.713c.517 0 .936.417.936.93 0 .515-.419.932-.936.932H.936A.934.934 0 0 1 0 28.196V8.958c0-.514.42-.931.936-.931H58.964c.517 0 .936.417.936.93v14.43h.002zm-7.587 5.74h6.65a.934.934 0 0 0 .935-.93c0-.514-.419-.931-.936-.931h-6.649a.934.934 0 0 0-.936.93c0 .514.421.931.936.931z"/>
        <path d="M9.399 19.508a.934.934 0 0 1-.936-.931c0-.514.419-.931.936-.931h41.104c.517 0 .936.417.936.93 0 .515-.419.932-.936.932H9.4zM20.28 22.455c.514 0 .936.417.936.931s-.42.931-.936.931h-7.527v17.376h34.395V24.317h-3.296a.934.934 0 0 1-.936-.93c0-.515.42-.932.936-.932h4.232c.516 0 .936.417.936.931v19.238c0 .514-.422.93-.936.93H11.817a.934.934 0 0 1-.936-.93V23.386c0-.514.419-.93.936-.93h8.463zm19.34 0H24.51a.934.934 0 0 0-.936.931c0 .514.42.931.936.931H39.62a.934.934 0 0 0 .936-.93.933.933 0 0 0-.936-.932zM11.817 47.765a.935.935 0 0 1-.936-.93c0-.515.42-.932.936-.932h36.269c.516 0 .936.417.936.931s-.422.931-.936.931h-36.27zM11.817 51.973a.934.934 0 0 1-.936-.93c0-.515.42-.931.936-.931h36.269c.516 0 .936.416.936.93s-.422.931-.936.931h-36.27z"/>
        <path d="M19.343 23.386c0-.514.42-.93.937-.93.514 0 .936.416.936.93 0 2.399.978 4.571 2.558 6.142a8.732 8.732 0 0 0 6.177 2.544 8.73 8.73 0 0 0 6.176-2.54l.002-.002-.002-.002a8.636 8.636 0 0 0 2.558-6.142c0-.514.42-.93.936-.93.517 0 .936.416.936.93 0 2.913-1.188 5.552-3.106 7.46l-.002-.001a10.604 10.604 0 0 1-7.498 3.093 10.601 10.601 0 0 1-7.501-3.092 10.487 10.487 0 0 1-3.107-7.46zM11.817 36.343a.934.934 0 0 1-.936-.931c0-.514.419-.931.936-.931 2.262 0 4.31.911 5.791 2.385a8.102 8.102 0 0 1 2.399 5.76c0 .514-.42.93-.936.93a.934.934 0 0 1-.937-.93 6.247 6.247 0 0 0-1.85-4.443 6.319 6.319 0 0 0-4.467-1.84zM48.086 34.48c.516 0 .935.418.935.932s-.42.93-.935.93a6.314 6.314 0 0 0-4.468 1.837l-.004.004a6.245 6.245 0 0 0-1.846 4.443c0 .514-.42.93-.936.93a.934.934 0 0 1-.936-.93c0-2.244.916-4.28 2.398-5.756l.004-.004a8.191 8.191 0 0 1 5.788-2.385z"/>
    </g>
</svg>
