<svg xmlns="http://www.w3.org/2000/svg" width="48" height="48" viewBox="0 0 48 48">
    <g fill="#FFF" fill-rule="nonzero">
        <path d="M20.927 13.406c-1.668 0-3.025 1.342-3.025 2.991 0 1.65 1.357 2.992 3.025 2.992s3.025-1.342 3.025-2.992c0-1.649-1.357-2.991-3.025-2.991zm0 4.558a1.578 1.578 0 0 1-1.585-1.567c0-.864.711-1.567 1.585-1.567s1.584.703 1.584 1.567-.71 1.567-1.584 1.567zM12.476 13.406c-1.668 0-3.025 1.342-3.025 2.991 0 1.65 1.357 2.992 3.025 2.992s3.025-1.342 3.025-2.992c0-1.649-1.357-2.991-3.025-2.991zm0 4.558a1.578 1.578 0 0 1-1.585-1.567c0-.864.711-1.567 1.585-1.567s1.585.703 1.585 1.567-.711 1.567-1.585 1.567z"/>
        <path stroke="#FFF" stroke-width="1.15" d="M47 30.832c0-3.566-1.61-6.882-4.535-9.336a.726.726 0 0 0-1.015.082c-.258.3-.22.75.083 1.004 2.597 2.179 4.027 5.109 4.027 8.25 0 3.391-1.711 6.589-4.694 8.772a.708.708 0 0 0-.274.727l.78 3.472-3.7-2.196a.728.728 0 0 0-.599-.065 14.751 14.751 0 0 1-4.622.733c-7.228 0-13.108-5.133-13.108-11.443s5.88-11.443 13.108-11.443c2.375 0 4.7.56 6.727 1.62a.724.724 0 0 0 .973-.296.708.708 0 0 0-.3-.963c-2.232-1.168-4.791-1.786-7.4-1.786-.065-.352-.048-.707-.048-1.06 0-7.654-7.044-13.88-15.701-13.88C8.044 3.023 1 9.25 1 16.903c0 1.593.303 3.155.9 4.643a.73.73 0 0 0 .984.378.716.716 0 0 0 .355-.903 11.011 11.011 0 0 1-.799-4.118c0-6.869 6.398-12.456 14.261-12.456 7.864 0 14.261 5.587 14.261 12.456 0 .378-.02.757-.058 1.133-6.73.632-12.104 5.34-12.9 11.27-.432.035-.869.053-1.303.053-2.597 0-5.14-.617-7.355-1.784a.727.727 0 0 0-.678 0l-3.299 1.74 1.166-3.074a.707.707 0 0 0-.184-.77 12.893 12.893 0 0 1-1.817-2.07.725.725 0 0 0-1.003-.18.707.707 0 0 0-.18.992A14.23 14.23 0 0 0 5.02 26.18l-1.67 4.402c-.227.6.44 1.181 1.014.878l4.648-2.451c2.34 1.163 4.99 1.775 7.69 1.775.4 0 .802-.013 1.201-.04-.001 7.183 6.525 12.956 14.548 12.956 1.631 0 3.23-.237 4.759-.705l4.858 2.882c.532.316 1.208-.168 1.073-.765l-1.044-4.646C45.22 38.02 47 34.534 47 30.832z"/>
        <path d="M27.841 27.84c-1.668 0-3.025 1.342-3.025 2.992s1.357 2.991 3.025 2.991 3.025-1.342 3.025-2.991c0-1.65-1.357-2.992-3.025-2.992zm0 4.559a1.578 1.578 0 0 1-1.584-1.567c0-.864.71-1.567 1.584-1.567.874 0 1.585.703 1.585 1.567s-.71 1.567-1.585 1.567zM37.06 27.84c-1.667 0-3.024 1.342-3.024 2.992s1.357 2.991 3.025 2.991 3.025-1.342 3.025-2.991c0-1.65-1.357-2.992-3.025-2.992zm0 4.559a1.578 1.578 0 0 1-1.584-1.567c0-.864.71-1.567 1.585-1.567.873 0 1.584.703 1.584 1.567s-.71 1.567-1.584 1.567z"/>
    </g>
</svg>
