<svg xmlns="http://www.w3.org/2000/svg" width="60" height="60" viewBox="0 0 60 60">
    <g fill="#FFF" fill-rule="evenodd">
        <path d="M20.818 18.29l2.603-1.54V1.54L20.818 0l-2.604 1.539V16.75zM18.214 28.197v1.053l2.604 1.525 2.603-1.525v15.266l11.156 6.573 4.454 2.619 15.61-9.192V26.05l-7.785-4.59-2.102-1.241v-6.101l15.082 8.895v24.539L39.03 59.836 18.214 47.553z"/>
        <path d="M41.635 12.27v24.552l-12.517 7.37-2.577-1.512v-3.078l9.886-5.83V18.383l-15.61 9.205-15.61-9.205V33.77l7.786 4.59h.013l2.088 1.228v6.128L0 36.822V12.27l15.094-8.896v6.128l-2.088 1.229h-.013l-5.221 3.064 5.22 3.077h.014l7.825 4.603 7.811-4.603 5.208-3.077-5.208-3.064-2.101-1.242V3.374z"/>
    </g>
</svg>
