<svg xmlns="http://www.w3.org/2000/svg" width="48" height="48" viewBox="0 0 48 48">
    <g fill="#FFF" fill-rule="nonzero">
        <path d="M23.021 10.852a2.242 2.242 0 0 0 2.235-2.25c0-2.262 1.827-4.102 4.072-4.102h6.309a2.242 2.242 0 0 0 2.234-2.25c0-1.243-1-2.25-2.234-2.25h-6.309c-4.71 0-8.54 3.859-8.54 8.602 0 1.242 1 2.25 2.233 2.25zM35.158 17.888H12.31a2.242 2.242 0 0 0-2.234 2.25c0 1.243 1 2.25 2.234 2.25h8.478v23.309c0 1.242 1 2.25 2.234 2.25a2.242 2.242 0 0 0 2.234-2.25V22.388h9.902a2.242 2.242 0 0 0 2.234-2.25c0-1.243-1-2.25-2.234-2.25z"/>
    </g>
</svg>
