<svg xmlns="http://www.w3.org/2000/svg" width="1280" height="67" viewBox="0 0 1280 67"><defs><linearGradient id="a" x1="0%" y1="50.002%" y2="50%"><stop offset="0%" stop-color="#00C8EF"/><stop offset="24.192%" stop-color="#0096C9"/><stop offset="31.483%" stop-color="#CC41BB"/><stop offset="100%" stop-color="#833076"/></linearGradient></defs><path fill="url(#a)" d="M1080.359 80.08a11.99 11.99 0 0 0-.31 4.001 3603.528 3603.528 0 0 0-156.406-15.885 11.977 11.977 0 0 0 .406-3.985 3607.195 3607.195 0 0 1 156.31 15.87zm23.716 3.009a3699.267 3699.267 0 0 1 177.957 27.607l1.968.355-.706 3.948-1.968-.354a3696.848 3696.848 0 0 0-177.95-27.604c.443-1.237.689-2.567.699-3.952zM900.283 62.4a12.007 12.007 0 0 0-.202 4 3555.478 3555.478 0 0 0-156.334-7.94 12.051 12.051 0 0 0 .155-3.998A3560.374 3560.374 0 0 1 900.283 62.4zM720.19 53.86a12.072 12.072 0 0 0-.046 4 3544.059 3544.059 0 0 0-156.287 0 12.091 12.091 0 0 0-.047-4 3553.38 3553.38 0 0 1 156.38 0zm-180.092.6a12.115 12.115 0 0 0 .154 3.999 3562.835 3562.835 0 0 0-150.277 7.492 18.294 18.294 0 0 0-.232-3.998 3567.758 3567.758 0 0 1 150.355-7.492zM354.003 64.67L354 65c0 1.254.128 2.478.372 3.66A3597.611 3597.611 0 0 0 214.965 82.7a24 24 0 0 0-.545-3.971A3601.331 3601.331 0 0 1 354.003 64.67zM167.012 84.755c.042 1.36.197 2.69.456 3.984A3656.162 3656.162 0 0 0 2.676 114.645L.708 115 0 111.052l1.967-.355a3658.506 3658.506 0 0 1 165.045-25.942zM372 77c-6.627 0-12-5.373-12-12s5.373-12 12-12 12 5.373 12 12-5.373 12-12 12zm540.025-4c-4.432 0-8.025-3.582-8.025-8s3.593-8 8.025-8 8.025 3.582 8.025 8-3.593 8-8.025 8zM552 64a8 8 0 1 1 0-16 8 8 0 0 1 0 16zm180 0a8 8 0 1 1 0-16 8 8 0 0 1 0 16zm-541 38c-9.941 0-18-8.059-18-18s8.059-18 18-18 18 8.059 18 18-8.059 18-18 18zm901.025-11c-4.432 0-8.025-3.582-8.025-8s3.593-8 8.025-8 8.025 3.582 8.025 8-3.593 8-8.025 8z" transform="translate(-2 -48)"/></svg>