<svg xmlns="http://www.w3.org/2000/svg" width="24" height="24" viewBox="0 0 24 24"><defs><linearGradient id="a" x1="100%" x2="0%" y1="50%" y2="50%"><stop offset="0%" stop-color="#CC41BB"/><stop offset="100%" stop-color="#833076"/></linearGradient></defs><g fill="none" fill-rule="evenodd"><path fill="url(#a)" fill-rule="nonzero" d="M20.485 3.515A11.922 11.922 0 0 0 12 0a11.922 11.922 0 0 0-8.485 3.515A11.921 11.921 0 0 0 0 12c0 3.205 1.248 6.219 3.515 8.485A11.921 11.921 0 0 0 12 24c3.205 0 6.219-1.248 8.485-3.515A11.921 11.921 0 0 0 24 12c0-3.205-1.248-6.219-3.515-8.485z"/><path stroke="#FFF" stroke-width="2" d="M7.208 19.62l.593-.593-1.321.082c.236.184.48.355.728.511zm13.388-4.952a9.006 9.006 0 0 1 0-.002zm-.976-7.46a9.01 9.01 0 0 0-.51-.728l-.084 1.32.593-.593zm0 0l.83-.83-1.48-.073c.238.29.455.592.65.903zM7.209 19.62a8.999 8.999 0 0 1-.903-.651l.073 1.48.83-.83zM3.388 9.384a8.968 8.968 0 0 0 0-.002zm13.404-5.005c.311.196.613.413.903.651l-.073-1.48-.83.83zm0 0l-.593.594 1.321-.082a9.01 9.01 0 0 0-.728-.511zM4.38 16.793c.156.249.327.492.51.728l.083-1.321-.593.593zm0 0l-.83.83 1.48.073a8.999 8.999 0 0 1-.65-.903z"/><path fill="#FFF" d="M7.109 8.523l1.503 1.503a4.002 4.002 0 0 0 5.479 5.48l1.386 1.385a6.002 6.002 0 0 1-8.368-8.368zM8.523 7.11a6.002 6.002 0 0 1 8.368 8.368l-1.386-1.386a4.002 4.002 0 0 0-5.479-5.479L8.523 7.11z"/></g></svg>