<svg xmlns="http://www.w3.org/2000/svg" width="48" height="48" viewBox="0 0 48 48"><path d="M47.614 10.687a1.805 1.805 0 0 0-2.518-.456l-5.617 3.914a1.82 1.82 0 0 0-.776 1.571c.016.374.024.724.024 1.071 0 11.531-8.737 23.458-23.358 23.458-2.98 0-5.91-.57-8.646-1.669l8.669-2.435a1.818 1.818 0 0 0 1.255-2.239 1.808 1.808 0 0 0-2.23-1.26L1.322 36.321a1.82 1.82 0 0 0-.489 3.28 26.8 26.8 0 0 0 14.536 4.278c10.144 0 16.498-4.813 20.042-8.85 4.407-5.022 6.934-11.67 6.934-18.242v-.216l4.814-3.355a1.822 1.822 0 0 0 .455-2.529zM3.993 10.12l18.232 9.282a1.799 1.799 0 0 0 1.934-.19 1.82 1.82 0 0 0 .646-1.841 7.163 7.163 0 0 1-.182-1.614c0-3.896 3.156-7.066 7.036-7.066 1.94 0 3.813.813 5.137 2.231.495.53 1.257.713 1.937.465l5.627-2.053a1.819 1.819 0 0 0 1.083-2.328 1.807 1.807 0 0 0-2.318-1.087l-4.58 1.67a10.681 10.681 0 0 0-6.886-2.532c-5.53 0-10.09 4.254-10.606 9.675L5.63 6.88a1.805 1.805 0 0 0-2.432.799 1.82 1.82 0 0 0 .796 2.442zM3.06 21l4.007 1.111a1.811 1.811 0 0 0 2.225-1.268 1.818 1.818 0 0 0-1.262-2.235l-4.006-1.11c-.963-.267-1.96.3-2.226 1.267-.266.968.3 1.968 1.263 2.235zm3.513 5.408a1.813 1.813 0 0 0-1.74 1.884 1.812 1.812 0 0 0 1.877 1.747l3.995-.152a1.814 1.814 0 0 0 1.74-1.885 1.814 1.814 0 0 0-1.877-1.746l-3.995.152z" fill="#FFF"/></svg>