<svg xmlns="http://www.w3.org/2000/svg" width="48" height="48" viewBox="0 0 48 48"><path d="M47.867 24.302L42.389 9.465a2.135 2.135 0 0 0-1.117-1.208 2.13 2.13 0 0 0-1.643-.063l-26.71 9.901c-.539.2-.967.597-1.207 1.12a2.142 2.142 0 0 0-.063 1.645l5.478 14.837c.2.539.596.968 1.117 1.208a2.137 2.137 0 0 0 1.643.063l26.71-9.901a2.156 2.156 0 0 0 1.27-2.765zm-9.706-13.27l-8.285 11.869-14-3.608 22.285-8.26zm-19.407 22.87l-4.751-12.87 11.004 2.837-6.253 10.033zm2.327.33l6.108-9.801 2.873.74a1.075 1.075 0 0 0 1.148-.425l1.7-2.437 11.003 3.459L21.08 34.23zM34.2 20.46l6.512-9.33L45.467 24 34.2 20.46zM12.51 35.992a1.073 1.073 0 0 0-1.38-.636l-4.046 1.5a1.077 1.077 0 0 0 .745 2.018l4.046-1.5c.557-.206.84-.825.635-1.382zm-5.477-9.989a1.073 1.073 0 0 0-1.38-.636l-2.497.926a1.077 1.077 0 0 0 .745 2.018l2.498-.926c.556-.206.84-.825.634-1.382zm-3.096 8.15a1.073 1.073 0 0 0-1.38-.635l-1.856.688a1.077 1.077 0 0 0 .746 2.018l1.856-.688c.556-.206.84-.825.634-1.383z" fill="#FFF"/></svg>