<svg xmlns="http://www.w3.org/2000/svg" width="48" height="48" viewBox="0 0 48 48"><g fill="#FFF" transform="translate(0 4)"><path d="M42.877 22.069a1.539 1.539 0 0 0-1.127 1.861 7.09 7.09 0 0 1 .206 1.692c0 2.894-1.789 5.661-5.037 7.792-3.45 2.263-8.064 3.508-12.995 3.508-4.932 0-9.547-1.245-12.995-3.508-3.249-2.13-5.038-4.898-5.038-7.792 0-.56.068-1.12.2-1.67a1.539 1.539 0 0 0-2.99-.725c-.19.786-.287 1.592-.287 2.395 0 3.965 2.283 7.646 6.427 10.365 3.945 2.587 9.159 4.012 14.683 4.012 5.524 0 10.738-1.425 14.682-4.012 4.145-2.719 6.427-6.4 6.427-10.365 0-.813-.1-1.63-.295-2.427a1.539 1.539 0 0 0-1.861-1.126z"/><path d="M17.665 28.7a1.539 1.539 0 0 0-2.258 2.09c1.638 1.77 4.902 2.87 8.517 2.87 3.615 0 6.878-1.1 8.517-2.87a1.539 1.539 0 0 0-2.258-2.09c-.868.937-3.14 1.883-6.26 1.883-3.119 0-5.39-.945-6.258-1.883z"/><circle cx="16.798" cy="22.299" r="2.727"/><circle cx="31.049" cy="22.299" r="2.727"/><path d="M41.885 13.416a5.967 5.967 0 0 0-3.898 1.45c-3.35-2.034-7.51-3.263-11.995-3.553l2.214-7.122 6.452 1.964a4.927 4.927 0 0 0 4.775 3.735 4.924 4.924 0 0 0 4.919-4.918 4.924 4.924 0 0 0-4.92-4.919 1.538 1.538 0 0 0 0 3.077c1.016 0 1.843.826 1.843 1.842a1.844 1.844 0 0 1-1.842 1.842 1.844 1.844 0 0 1-1.842-1.842c0-.677-.442-1.275-1.09-1.472L27.639.802a1.539 1.539 0 0 0-1.918 1.015l-2.937 9.45c-4.838.17-9.344 1.426-12.923 3.599a5.966 5.966 0 0 0-3.898-1.45A5.97 5.97 0 0 0 0 19.379a1.538 1.538 0 0 0 3.077 0 2.89 2.89 0 0 1 2.886-2.886c.95 0 1.838.467 2.378 1.25a1.54 1.54 0 0 0 2.151.384c3.437-2.418 8.331-3.804 13.428-3.805h.008c5.09 0 9.979 1.384 13.414 3.796a1.538 1.538 0 0 0 2.165-.376 2.89 2.89 0 0 1 2.378-1.249 2.89 2.89 0 0 1 2.886 2.886 1.538 1.538 0 0 0 3.077 0 5.97 5.97 0 0 0-5.963-5.963z"/></g></svg>