<svg xmlns="http://www.w3.org/2000/svg" width="48" height="48" viewBox="0 0 48 48"><path fill="#FFF" d="M38.534 44.868c-.374 0-.745-.11-1.064-.325l-12.035-8.126-6.456 4.623a1.904 1.904 0 0 1-1.746.245 1.89 1.89 0 0 1-1.192-1.294l-3.242-12.227-11.581-4.408A1.887 1.887 0 0 1 0 21.607a1.886 1.886 0 0 1 1.194-1.765L45.231 2.401a1.903 1.903 0 0 1 2.167.494 1.874 1.874 0 0 1 .43 1.62l-7.433 38.82a1.888 1.888 0 0 1-1.86 1.533zM26.491 32.572l10.721 7.239 5.784-30.207-20.89 20.008 4.335 2.927c.017.01.034.022.05.033zm-8.924-1.61l1.435 5.415 3.093-2.215-4.05-2.735a1.885 1.885 0 0 1-.478-.464zM7.108 21.56l7.952 3.027c.57.216 1 .693 1.156 1.28l1.008 3.804c.046-.438.246-.851.57-1.162L37.7 9.443 7.108 21.56z"/></svg>