<svg xmlns="http://www.w3.org/2000/svg" width="60" height="60" viewBox="0 0 60 60">
    <defs>
        <linearGradient id="a" x1="50%" x2="50%" y1="0%" y2="100%">
            <stop offset="0%" stop-color="#FAD961"/>
            <stop offset="100%" stop-color="#F76B1C"/>
        </linearGradient>
    </defs>
    <g fill="url(#a)" fill-rule="nonzero">
        <path d="M44.912 37.23c-.214-2.222-.848-4.542-1.836-6.71a25.818 25.818 0 0 0-3.492-5.608 22.452 22.452 0 0 0-1.014-1.184l-.482-.53a5.945 5.945 0 0 0-.315-.342l-.144-.147a7.234 7.234 0 0 1-.489-.53 8.455 8.455 0 0 0-.214-.226c-.103-.105-.219-.222-.322-.353l-.041-.048a34.358 34.358 0 0 1-1.89-2.26c-.627-.831-1.07-1.52-1.439-2.237a10.336 10.336 0 0 1-.947-2.71c-.192-.89-.304-1.911-.334-3.04-.03-1.002.031-1.965.094-2.768.045-.535.096-1.008.147-1.426a.996.996 0 0 0-.331-.866.978.978 0 0 0-.897-.212c-.47.123-.952.287-1.428.485a13.001 13.001 0 0 0-2.93 1.702 13.897 13.897 0 0 0-3.13 3.373 14.775 14.775 0 0 0-2.197 5.472c-.415 2.164-.369 4.606.128 6.872.471 2.193 1.384 4.433 2.643 6.485.665 1.068 1.303 1.96 1.935 2.71.188.236.706.845.711.852l.207.238c.145.165.249.29.354.417.097.117.178.213.267.31l.016.015a68.083 68.083 0 0 1 2.253 2.829 31.54 31.54 0 0 1 1.702 2.513c.545.9.935 1.686 1.226 2.473.328.894.543 1.863.643 2.885.092.898.093 1.906.003 3.075a28.971 28.971 0 0 1-.384 2.734c-.096.484-.191.931-.277 1.317a.997.997 0 0 0 .254.91.98.98 0 0 0 .895.282c.463-.091.908-.21 1.35-.361a13.107 13.107 0 0 0 3.015-1.454 13.947 13.947 0 0 0 3.376-3.053 15.376 15.376 0 0 0 2.688-5.143c.637-2.095.854-4.427.626-6.741zM25.12 42.721a11.51 11.51 0 0 0-1.6-2.51c-.163-.198-.36-.424-.457-.522l-.228-.245a3.883 3.883 0 0 0-.148-.157l-.062-.062a3.465 3.465 0 0 1-.24-.253l-.086-.088c-.05-.05-.099-.1-.14-.15a7.022 7.022 0 0 1-1.552-2.043 4.573 4.573 0 0 1-.434-1.214 7.36 7.36 0 0 1-.152-1.36 10.57 10.57 0 0 1 .03-1.075.967.967 0 0 0-.428-.873 1.005 1.005 0 0 0-.983-.075 6.25 6.25 0 0 0-1.07.644 6.282 6.282 0 0 0-1.434 1.508 6.514 6.514 0 0 0-1.007 2.447c-.19.971-.17 2.065.058 3.078A9.295 9.295 0 0 0 16.4 42.68c.305.477.597.876.878 1.202.082.1.261.305.34.396v.001l.087.098c.07.078.12.135.167.192.042.05.077.092.11.126l.016.016c.305.359.698.827 1.034 1.268.292.381.546.749.78 1.125.248.4.427.751.56 1.104.15.4.25.836.296 1.296.042.401.042.853.001 1.37-.027.306-.07.63-.133.99a.965.965 0 0 0 .355.922 1.003 1.003 0 0 0 .991.143 6.247 6.247 0 0 0 1.007-.516 6.339 6.339 0 0 0 1.552-1.368 6.83 6.83 0 0 0 1.231-2.302c.289-.926.39-1.998.289-3.019a9.414 9.414 0 0 0-.842-3.003z"/>
    </g>
</svg>
