<svg xmlns="http://www.w3.org/2000/svg" width="48" height="48" viewBox="0 0 48 48">
    <g fill="#FFF" fill-rule="nonzero">
        <path d="M24 0C10.784 0 0 10.786 0 24c0 13.216 10.786 24 24 24 13.216 0 24-10.786 24-24C48 10.784 37.214 0 24 0zm0 45.188C12.317 45.188 2.812 35.682 2.812 24 2.813 12.317 12.318 2.812 24 2.812c11.683 0 21.188 9.505 21.188 21.188 0 11.683-9.505 21.188-21.188 21.188z"/>
        <path d="M24 5.719c-10.08 0-18.281 8.2-18.281 18.281 0 10.08 8.2 18.281 18.281 18.281 10.08 0 18.281-8.2 18.281-18.281 0-10.08-8.2-18.281-18.281-18.281zm0 33.75c-8.53 0-15.469-6.94-15.469-15.469 0-8.53 6.94-15.469 15.469-15.469 8.53 0 15.469 6.94 15.469 15.469 0 8.53-6.94 15.469-15.469 15.469z"/>
        <path d="M31.115 23.399a5.599 5.599 0 0 0 1.323-3.618 5.635 5.635 0 0 0-4.22-5.447V12.75a1.406 1.406 0 0 0-2.812 0v1.406h-2.812V12.75a1.406 1.406 0 0 0-2.813 0v1.406h-1.406a1.407 1.407 0 0 0 0 2.813h1.406V31.03h-1.406c-.772 0-1.406.63-1.406 1.407 0 .775.632 1.406 1.406 1.406h1.406v1.406a1.406 1.406 0 0 0 2.813 0v-1.406h2.812v1.406a1.406 1.406 0 0 0 2.813 0v-1.406a5.631 5.631 0 0 0 5.625-5.625 5.627 5.627 0 0 0-2.729-4.82zm-8.521-6.43h4.218a2.816 2.816 0 0 1 2.813 2.812 2.816 2.816 0 0 1-2.813 2.813h-4.218v-5.625zm5.625 14.062h-5.625v-5.625h5.625a2.816 2.816 0 0 1 2.812 2.813 2.816 2.816 0 0 1-2.812 2.812z"/>
    </g>
</svg>
